<svg xmlns="http://www.w3.org/2000/svg" xmlns:svg="http://www.w3.org/2000/svg" version="1.1" id="svg1" viewBox="62.41 229.63 899.19 564.73">
  <defs id="defs1"/>
  <g id="g1">
    <path id="path20" style="fill:#000000;fill-opacity:1;stroke-width:1.58734" d="m 393.73348,793.81643 -323.455026,0.55021 -3.936697,-3.9367 -3.936708,-3.93671 V 514.40397 242.31471 l 3.340486,-4.24673 3.340496,-4.24675 48.987639,0.46114 c 44.53771,0.41922 49.24491,0.71851 51.82005,3.29466 2.63348,2.63451 2.88817,9.2436 3.62609,94.0977 l 0.79369,91.26419 75.43211,-76.63683 c 41.48766,-42.15024 82.83089,-84.29642 91.87385,-93.6581 9.27931,-9.6064 19.29964,-18.40477 23.00219,-20.19714 6.43452,-3.11491 8.98224,-3.16127 132.73671,-2.41541 69.39695,0.41826 144.03399,1.11113 165.86011,1.53974 21.82612,0.42859 46.46978,1.54798 54.7637,2.48752 8.29392,0.93954 23.42292,3.39608 33.61998,5.45897 10.19705,2.06292 26.01238,6.25112 35.14515,9.30713 9.13278,3.05603 23.89774,9.14785 32.811,13.53738 8.91327,4.38954 23.14284,12.59908 31.62128,18.24338 8.47844,5.64434 22.29234,16.7708 30.69759,24.72549 8.40522,7.9547 20.25771,21.04182 26.33882,29.08251 6.08115,8.04066 14.56811,20.79439 18.85995,28.34161 4.29184,7.5472 10.80804,21.26588 14.48046,30.48595 3.67239,9.22009 8.74578,24.83152 11.27414,34.69211 2.52837,9.86056 5.54508,23.28563 6.70376,29.83347 1.39485,7.88268 2.09079,25.58155 2.05965,52.38267 -0.0371,31.50483 -0.65308,43.67351 -2.78072,54.8952 -1.50349,7.92972 -4.86751,22.01735 -7.47569,31.30581 -2.60814,9.28849 -7.92817,24.12758 -11.82223,32.97575 -3.89407,8.84818 -10.09246,21.19 -13.77419,27.42627 -3.68175,6.23626 -11.68621,18.1246 -17.78771,26.41853 -6.10151,8.29392 -18.67282,22.58011 -27.93625,31.74707 -9.26343,9.16698 -22.76135,20.95308 -29.99536,26.19134 -7.23404,5.23827 -19.64443,13.24465 -27.57869,17.79194 -7.93425,4.54728 -20.57618,10.84821 -28.09319,14.00205 -7.51699,3.15383 -21.16752,7.82679 -30.33449,10.38435 -9.16698,2.55755 -23.45315,5.84901 -31.74707,7.31433 -13.71643,2.42333 -44.32499,2.71396 -338.53488,3.21442 z m -103.51722,-31.2778 c 129.49131,0 195.32935,-0.55388 201.67331,-1.69663 5.18034,-0.93315 15.17584,-4.45929 22.21224,-7.83584 8.52603,-4.09142 16.57553,-9.64088 24.13207,-16.63708 6.23626,-5.77381 14.58965,-14.82265 18.5631,-20.10849 3.97346,-5.28587 9.71462,-14.85817 12.75816,-21.27179 3.0435,-6.4136 7.46702,-17.94659 9.82999,-25.62884 3.99271,-12.98066 4.3023,-16.04296 4.38098,-43.33376 0.0747,-25.93999 -0.33391,-30.81026 -3.5031,-41.74488 -1.97328,-6.80837 -6.04024,-17.34123 -9.03771,-23.40636 -2.99749,-6.06514 -8.05363,-14.95014 -11.2359,-19.74445 -3.18229,-4.79429 -9.47281,-12.05808 -13.97891,-16.14173 -4.50614,-4.08367 -12.62894,-10.22652 -18.05065,-13.65079 -5.42172,-3.42425 -10.29145,-7.5926 -10.8216,-9.26301 -0.53017,-1.6704 -0.50803,-4.47354 0.0492,-6.2292 0.55722,-1.75567 3.05673,-4.24889 5.55442,-5.54052 2.49769,-1.29161 9.1587,-6.26563 14.80222,-11.05336 5.64353,-4.78775 13.55249,-13.08372 17.57548,-18.43548 4.02298,-5.35176 9.72099,-14.83466 12.66221,-21.07311 2.94125,-6.23847 6.47317,-15.98567 7.84874,-21.66046 1.37558,-5.67479 2.97969,-15.41954 3.56471,-21.65502 0.62266,-6.63679 0.24992,-17.1667 -0.89901,-25.39765 -1.07947,-7.73325 -3.73748,-19.77492 -5.90671,-26.75928 -2.16921,-6.98435 -6.8804,-18.41331 -10.46931,-25.39766 -4.85079,-9.44014 -10.0026,-16.19337 -20.07603,-26.31672 -10.84458,-10.89828 -16.24534,-14.94209 -27.04328,-20.24865 -7.42087,-3.64693 -17.34012,-7.3406 -22.04277,-8.20823 -4.70264,-0.86759 -31.26415,-1.57747 -59.02559,-1.57747 -27.76145,0 -52.18169,0.64876 -54.26724,1.4417 -2.08553,0.7929 -53.38371,51.15297 -113.99597,111.91125 -80.70866,80.90315 -111.15997,110.46884 -113.77561,110.46676 -1.96435,-9.2e-4 -5.00017,-1.43143 -6.74624,-3.17754 -3.10991,-3.10988 -3.17471,-5.29115 -3.17471,-106.84299 0,-86.43677 -0.37002,-104.17429 -2.22608,-106.71261 -1.97613,-2.7025 -4.35345,-3.04848 -21.17294,-3.08126 -13.76475,-0.0268 -19.66822,0.55892 -21.584226,2.14163 -2.437378,2.01335 -2.637387,20.67781 -2.637387,246.1192 0,187.61516 0.439824,244.38049 1.904833,245.84549 1.460563,1.46055 46.74451,1.90483 194.15932,1.90483 z m 149.18531,-32.23939 c -16.39009,0.55027 -19.95854,0.211 -25.57142,-2.4313 -4.5633,-2.14824 -11.29971,-8.72792 -22.42127,-21.89974 -8.74396,-10.35589 -41.16685,-48.90246 -72.05084,-85.65908 -30.88398,-36.75661 -66.5102,-79.15011 -79.16935,-94.20778 -12.65915,-15.05768 -23.61556,-29.10366 -24.34757,-31.21332 -0.95974,-2.76597 -0.51705,-5.11241 1.58735,-8.41335 1.60506,-2.51769 40.77667,-42.70337 87.04804,-89.30152 49.76987,-50.12139 87.07184,-86.43838 91.33343,-88.9217 3.96201,-2.30877 11.81942,-5.77974 17.46089,-7.71326 7.86364,-2.69512 13.96137,-3.52396 26.13074,-3.55186 10.51056,-0.0241 19.06331,0.8973 25.31468,2.72722 5.19263,1.52 13.76434,4.94273 19.04826,7.60607 6.01851,3.03361 14.1079,9.35697 21.65633,16.92845 8.80066,8.82757 13.65948,15.36063 18.02187,24.23174 3.28496,6.68015 6.94516,16.68048 8.13377,22.22296 1.18861,5.5425 2.18622,14.21466 2.21689,19.27148 0.0306,5.05681 -1.07117,14.69998 -2.4485,21.42927 -1.37735,6.72928 -4.75835,16.83874 -7.51334,22.46544 -2.75497,5.62672 -8.94972,14.49959 -13.7661,19.71755 -4.81637,5.21793 -12.98689,12.22944 -18.15671,15.58109 -5.1698,3.35167 -14.81297,7.77855 -21.42928,9.83751 -6.61629,2.05894 -16.99877,4.22925 -23.0722,4.82288 -6.07342,0.59362 -11.96646,1.84609 -13.09566,2.78324 -1.39776,1.16003 -2.05308,6.21275 -2.05308,15.82975 0,13.17236 0.24109,14.2212 3.57153,15.53813 1.96436,0.77673 9.89198,2.57087 17.61692,3.98696 8.19583,1.50241 18.77338,4.83963 25.39767,8.01297 6.24376,2.99107 15.4537,8.68771 20.46658,12.65923 5.01283,3.97151 12.26642,11.23714 16.11908,16.14582 3.85265,4.90867 9.16576,13.35683 11.80692,18.77372 2.64118,5.41688 6.07264,14.43098 7.62549,20.03133 1.91412,6.90331 2.8,15.54999 2.75083,26.8497 -0.0442,10.14555 -1.10854,20.70442 -2.72024,26.98501 -1.45624,5.6748 -5.46696,16.03227 -8.91273,23.01664 -3.44574,6.98435 -9.8059,17.04287 -14.13367,22.35227 -4.3278,5.30939 -12.77138,13.00332 -18.76356,17.09757 -5.99216,4.09428 -16.23603,9.3173 -22.76417,11.60673 -9.56828,3.35565 -15.5621,4.2866 -30.91758,4.80218 z m 1.43121,-31.65576 c 6.1972,-0.43317 15.44182,-2.38227 20.5436,-4.33136 5.10179,-1.94908 12.89529,-6.50326 17.31889,-10.12037 4.42361,-3.6171 10.37989,-9.97723 13.23619,-14.13361 2.85627,-4.15639 6.75,-11.65663 8.65271,-16.66722 2.12301,-5.59078 3.77811,-14.39533 4.28433,-22.7912 0.50127,-8.31403 0.0494,-17.03196 -1.15185,-22.22295 -1.08715,-4.69806 -4.12619,-12.986 -6.75333,-18.41765 -2.91289,-6.0224 -8.10517,-13.02369 -13.30729,-17.94363 -4.69182,-4.43733 -12.33487,-9.80954 -16.98453,-11.93823 -4.64966,-2.12869 -12.2493,-4.59011 -16.88807,-5.46985 -4.63876,-0.87973 -15.53467,-1.59949 -24.21312,-1.59949 -15.3793,0 -15.89836,-0.11934 -20.49208,-4.71309 l -4.71309,-4.71309 0.46998,-42.85342 c 0.42348,-38.61357 0.74989,-43.13359 3.29939,-45.68538 2.39491,-2.39709 6.68083,-2.96129 27.91011,-3.67394 24.26938,-0.81471 25.41835,-1.00816 35.51895,-5.98066 6.91273,-3.40313 13.30188,-8.24522 18.91684,-14.33627 4.93438,-5.35283 9.68154,-12.47412 11.35643,-17.03596 1.58282,-4.31112 3.28178,-12.51872 3.77545,-18.23911 0.63904,-7.40494 0.11092,-13.1063 -1.83318,-19.79414 -1.50191,-5.16641 -4.03247,-11.91504 -5.62346,-14.99697 -1.59098,-3.08194 -5.98979,-8.7191 -9.77515,-12.52707 -3.78532,-3.80794 -10.40719,-8.94437 -14.71526,-11.41428 -4.46331,-2.55893 -12.57391,-5.29045 -18.8541,-6.34974 -6.06172,-1.02244 -14.6802,-1.3938 -19.15218,-0.82522 -4.47201,0.56858 -11.70246,2.75823 -16.06769,4.86586 -6.21793,3.00219 -24.37047,20.38227 -83.81965,80.25282 -41.7356,42.03141 -75.66528,77.35069 -75.39931,78.48731 0.26598,1.13661 16.91269,21.54122 36.99273,45.34356 20.08002,23.80234 41.5093,49.1097 47.62061,56.23856 6.11131,7.12887 24.3262,28.59804 40.47751,47.70927 16.15133,19.11122 33.58164,39.67889 38.73402,45.70589 l 9.36797,10.95822 z M 236.2525,719.68007 h -86.68729 l -3.89623,-3.89625 -3.89623,-3.89621 v -77.37637 -77.37637 l 12.30199,-11.66944 c 6.76609,-6.4182 14.0599,-12.38652 16.20842,-13.263 2.14853,-0.87642 5.53334,-1.18521 7.52179,-0.68612 2.22925,0.5595 21.50806,22.04622 50.28357,56.04226 25.66751,30.32415 58.88179,69.42103 73.80952,86.88192 22.85115,26.7289 27.14456,32.55371 27.16189,36.85013 0.0142,3.435 -0.98305,5.64015 -3.04979,6.74625 -2.00895,1.07517 -33.03746,1.6432 -89.75764,1.6432 z m -12.35304,-31.74708 h 47.09326 l -5.59701,-5.95258 c -3.07836,-3.27391 -10.33214,-11.73061 -16.1195,-18.79265 -5.78734,-7.06205 -24.54149,-29.20563 -41.67588,-49.20795 -17.13434,-20.00235 -31.81199,-36.606 -32.61695,-36.89701 -0.87438,-0.31613 -1.46357,20.65336 -1.46357,52.09019 0,33.23625 0.60529,53.7503 1.6432,55.68964 1.56792,2.92966 3.80133,3.07036 48.73645,3.07036 z m 412.73083,74.14845 c 67.01591,-0.67579 75.97816,-1.07649 92.46336,-4.13396 10.04001,-1.86208 25.35931,-5.58392 34.04287,-8.27071 8.68356,-2.68679 23.68406,-8.84444 33.33441,-13.68366 9.6504,-4.83922 24.58984,-13.79209 33.19883,-19.89525 8.60897,-6.10316 22.18084,-17.64717 30.15972,-25.65335 7.97887,-8.00616 19.31032,-21.31109 25.18099,-29.56653 5.87067,-8.25541 14.60379,-22.92886 19.40691,-32.60765 4.80314,-9.67879 10.85068,-24.07825 13.439,-31.99882 2.58832,-7.92054 5.77478,-19.64504 7.08101,-26.05443 1.30624,-6.40938 3.13441,-18.58979 4.06258,-27.06756 0.92818,-8.47776 1.68762,-23.32784 1.68762,-33.00015 0,-9.67231 -0.76209,-24.52238 -1.6935,-33.00014 -0.9314,-8.4778 -3.14317,-22.15962 -4.91501,-30.40407 -1.77185,-8.24444 -5.37633,-21.10201 -8.00999,-28.57235 -2.63365,-7.47036 -7.83908,-20.01125 -11.56759,-27.86865 -3.72854,-7.8574 -10.31765,-19.50366 -14.64248,-25.88059 -4.32482,-6.3769 -13.33415,-17.57205 -20.02072,-24.87809 -6.68655,-7.30605 -17.88403,-17.59886 -24.88324,-22.87291 -6.99923,-5.27409 -17.89505,-12.61621 -24.21297,-16.31585 -6.3179,-3.69966 -18.73348,-9.80497 -27.59022,-13.56738 -8.85673,-3.76242 -24.26849,-8.976 -34.24835,-11.58576 -9.97984,-2.60975 -25.59132,-5.91616 -34.69217,-7.34759 -12.96547,-2.03926 -32.50457,-2.75617 -90.27285,-3.31217 l -73.72589,-0.70959 9.80193,10.4783 c 5.39108,5.76305 13.3663,15.76044 17.72272,22.2164 l 7.92082,11.73812 60.76521,0.70104 c 48.51303,0.55967 63.64574,1.24933 75.0514,3.42041 7.85738,1.49566 20.50886,4.7938 28.11441,7.3292 7.60552,2.5354 19.03446,7.23155 25.39766,10.43589 6.36318,3.20436 16.56959,9.22109 22.6809,13.37054 6.11131,4.14946 15.55048,11.58778 20.97588,16.5296 5.42541,4.94183 14.13549,14.65329 19.35568,21.58103 5.22019,6.92772 12.10083,17.26219 15.2903,22.96549 3.18944,5.70329 8.21221,17.12143 11.16166,25.37361 2.94945,8.25219 6.93259,22.34588 8.85143,31.31936 2.86006,13.37507 3.49991,21.60766 3.55037,45.68144 0.0459,21.87189 -0.65178,32.94673 -2.73364,43.3971 -1.53736,7.71707 -4.98692,20.57464 -7.66567,28.57237 -2.67875,7.99772 -8.29173,21.32726 -12.47329,29.62118 -4.18152,8.29392 -11.30642,20.32547 -15.83307,26.73677 -4.52667,6.41129 -13.3235,17.01872 -19.54851,23.57205 -6.22504,6.55335 -17.29876,16.40361 -24.60826,21.88948 -7.30952,5.48588 -19.11558,12.88375 -26.23571,16.43973 -7.12015,3.55594 -19.62189,8.6869 -27.78166,11.40208 -8.15975,2.7152 -20.30301,6.08239 -26.98501,7.48264 -9.26778,1.94215 -25.92594,2.76411 -70.23956,3.46581 l -58.09048,0.91988 -11.98307,15.87353 c -6.59067,8.73044 -13.84391,17.60525 -16.11831,19.72178 -2.27438,2.11654 -4.13525,4.50355 -4.13525,5.30448 0,0.87331 29.70524,1.15669 74.2088,0.7079 z m 21.42928,-74.5913 c 42.67427,-0.64185 51.4899,-1.19704 63.09731,-3.97376 7.42088,-1.77524 18.14487,-4.98357 23.83107,-7.12962 5.68626,-2.14607 14.61511,-6.06352 19.84194,-8.70545 5.22683,-2.64191 14.02381,-8.13472 19.54883,-12.20621 5.52502,-4.0715 14.55884,-12.02852 20.07515,-17.68228 5.51632,-5.65375 13.72573,-15.62603 18.24309,-22.16065 4.51737,-6.53463 11.33514,-18.47674 15.15061,-26.53804 3.81545,-8.06132 8.90283,-21.80003 11.30525,-30.53047 4.12252,-14.98128 4.3722,-17.79192 4.44189,-50.00165 0.066,-30.52472 -0.30372,-35.5425 -3.50197,-47.52399 -1.96669,-7.36772 -6.00916,-19.02421 -8.98328,-25.9033 -2.97411,-6.87907 -7.7865,-16.50003 -10.6942,-21.37988 -2.9077,-4.87987 -11.22014,-15.1455 -18.47211,-22.81254 -8.04817,-8.50883 -18.20933,-17.1628 -26.08009,-22.21166 -7.09206,-4.54939 -18.9865,-10.72805 -26.43207,-13.73033 -7.44554,-3.00229 -19.63886,-6.7604 -27.09625,-8.35136 -7.45738,-1.59096 -21.05913,-3.71757 -30.22611,-4.72582 -9.5746,-1.05305 -32.8789,-1.61904 -54.76371,-1.33003 l -38.09648,0.50309 0.44128,7.93677 c 0.24273,4.36522 0.57827,20.43717 0.74567,35.71546 0.26991,24.63162 -0.10992,29.30719 -3.35405,41.2704 -2.01216,7.42044 -6.03236,18.62967 -8.93379,24.90945 -2.90142,6.27974 -7.91031,15.38753 -11.1309,20.23953 -3.22057,4.852 -9.00053,12.31975 -12.84433,16.595 -3.84381,4.27525 -6.98875,8.79374 -6.98875,10.04112 0,1.24734 1.86513,3.99964 4.14477,6.11618 2.27961,2.11653 7.24048,7.85018 11.02412,12.74142 3.78363,4.89126 9.43381,13.2517 12.5559,18.57876 3.12211,5.32708 8.09923,15.96848 11.06028,23.64756 2.96105,7.67912 6.49246,19.34645 7.8476,25.92743 1.35513,6.58097 2.93372,18.72424 3.50798,26.98502 0.59081,8.49931 0.25317,22.25512 -0.77779,31.6868 -1.00202,9.16695 -3.22031,22.02452 -4.92955,28.57237 -1.70924,6.54782 -3.11997,12.86626 -3.13493,14.04096 -0.0224,1.76024 8.69563,2.00461 49.57762,1.38972 z"/>
  </g>
</svg>